<svg xmlns="http://www.w3.org/2000/svg" viewBox="0 0 38 38"><defs><style>.cls-1{fill:#4e4a49;}.cls-2{fill:none;stroke:#4e4a49;stroke-miterlimit:10;stroke-width:2px;}</style></defs><title>fb</title><g id="Layer_2" data-name="Layer 2"><g id="Layer_1-2" data-name="Layer 1"><path class="cls-1" d="M22.77,10h-1a4.91,4.91,0,0,0-4.91,4.91V17H15.23a.31.31,0,0,0-.31.31v2.49a.31.31,0,0,0,.31.31h1.66v7.6a.31.31,0,0,0,.31.31h2.48a.31.31,0,0,0,.31-.31v-7.6h2.47a.31.31,0,0,0,.31-.31V17.29a.31.31,0,0,0-.31-.31H20V14.91A1.81,1.81,0,0,1,21.8,13.1h1a.31.31,0,0,0,.31-.31V10.31A.31.31,0,0,0,22.77,10Z"/><circle class="cls-2" cx="19" cy="19" r="18"/></g></g></svg>