<svg xmlns="http://www.w3.org/2000/svg" viewBox="0 0 19.08 30"><defs><style>.cls-1{fill:#2c2a29;}</style></defs><title>hot</title><g id="Layer_2" data-name="Layer 2"><g id="Layer_1-2" data-name="Layer 1"><path class="cls-1" d="M15.75,13C12.8,9.16,9,5.73,9.31,0,7,2.69,6.12,5.42,6.71,8.59a11,11,0,0,1,.2,5.14c-.16.55-.25,1.23-1,1.22s-.83-.7-1-1.24c-.46-1.47-.15-3-.29-5-2.77,4-4.48,8-4.63,12.45a7.59,7.59,0,0,0,4.31,7.61,11.12,11.12,0,0,0,8.88.48c4-1.39,6-4.25,5.88-8.49C19,17.76,17.54,15.33,15.75,13Z"/></g></g></svg>