<svg xmlns="http://www.w3.org/2000/svg" viewBox="0 0 38 38"><defs><style>.cls-1{fill:none;stroke:#4e4a49;stroke-miterlimit:10;stroke-width:2px;}.cls-2{fill:#4f4a49;}</style></defs><title>insta</title><g id="Layer_2" data-name="Layer 2"><g id="Layer_1-2" data-name="Layer 1"><circle class="cls-1" cx="19" cy="19" r="18"/><path class="cls-2" d="M15.5,27A4.51,4.51,0,0,1,11,22.5v-7A4.51,4.51,0,0,1,15.5,11h7A4.51,4.51,0,0,1,27,15.5v7A4.51,4.51,0,0,1,22.5,27Zm0-14.24a2.74,2.74,0,0,0-2.74,2.74v7a2.73,2.73,0,0,0,2.74,2.74h7a2.74,2.74,0,0,0,2.74-2.74v-7a2.74,2.74,0,0,0-2.74-2.74Z"/><path class="cls-2" d="M19,23.21A4.21,4.21,0,1,1,23.21,19,4.22,4.22,0,0,1,19,23.21Zm0-6.67A2.46,2.46,0,1,0,21.46,19,2.47,2.47,0,0,0,19,16.54Z"/><path class="cls-2" d="M23.2,16A1.23,1.23,0,0,1,22,14.81a1.21,1.21,0,0,1,1.21-1.2,1.2,1.2,0,0,1,1.2,1.2A1.21,1.21,0,0,1,23.2,16Z"/></g></g></svg>