<svg xmlns="http://www.w3.org/2000/svg" viewBox="0 0 38 38"><defs><style>.cls-1{fill:none;stroke:#4e4a49;stroke-miterlimit:10;stroke-width:2px;}.cls-2{fill:#4e4a49;}</style></defs><title>telegram</title><g id="Layer_2" data-name="Layer 2"><g id="Layer_1-2" data-name="Layer 1"><circle class="cls-1" cx="19" cy="19" r="18"/><g id="_Group_" data-name="&lt;Group&gt;"><path id="_Compound_Path_" data-name="&lt;Compound Path&gt;" class="cls-2" d="M9.14,18.67l4.23,1.58L15,25.52a.49.49,0,0,0,.79.24l2.36-1.92a.72.72,0,0,1,.86,0l4.26,3.09a.49.49,0,0,0,.78-.3l3.12-15a.5.5,0,0,0-.67-.57L9.13,17.74A.5.5,0,0,0,9.14,18.67Zm5.61.74L23,14.31a.14.14,0,0,1,.17.23l-6.82,6.35a1.38,1.38,0,0,0-.44.85l-.24,1.72a.21.21,0,0,1-.41,0l-.9-3.14A.84.84,0,0,1,14.75,19.41Z"/></g></g></g></svg>