<svg xmlns="http://www.w3.org/2000/svg" viewBox="0 0 62 6.16"><defs><style>.cls-1{fill:#f7cc0c;}</style></defs><title>wave</title><g id="Layer_2" data-name="Layer 2"><g id="Layer_1-2" data-name="Layer 1"><path class="cls-1" d="M57.43,2.41c-1,1-1.66,1.85-3.18,1.85S52,3.43,51.07,2.41,48.85,0,46.5,0a5.78,5.78,0,0,0-4.57,2.41c-1,1-1.66,1.85-3.18,1.85s-2.29-.83-3.18-1.85S33.35,0,31,0a5.78,5.78,0,0,0-4.57,2.41c-1,1-1.66,1.85-3.18,1.85S21,3.43,20.07,2.41,17.85,0,15.5,0a5.78,5.78,0,0,0-4.57,2.41c-1,1-1.66,1.85-3.18,1.85S5.46,3.43,4.57,2.41,2.35,0,0,0V1.91c1.52,0,2.29.82,3.18,1.84S5.4,6.16,7.75,6.16a5.78,5.78,0,0,0,4.57-2.41c1-1,1.66-1.84,3.18-1.84s2.29.82,3.18,1.84,2.22,2.41,4.57,2.41a5.78,5.78,0,0,0,4.57-2.41c1-1,1.66-1.84,3.18-1.84s2.29.82,3.18,1.84,2.22,2.41,4.57,2.41a5.78,5.78,0,0,0,4.57-2.41c1-1,1.66-1.84,3.18-1.84s2.29.82,3.18,1.84,2.22,2.41,4.57,2.41a5.78,5.78,0,0,0,4.57-2.41c1-1,1.66-1.84,3.18-1.84V0C59.65,0,58.44,1.33,57.43,2.41Z"/></g></g></svg>